<svg width="720" height="480" viewBox="0 0 720 480" fill="none" xmlns="http://www.w3.org/2000/svg">
  <rect width="720" height="480" rx="32" fill="#EEF6FF"/>
  <rect x="34" y="34" width="652" height="412" rx="28" fill="#FCFEFF" stroke="#D5E7F7" stroke-width="4"/>
  <text x="72" y="92" fill="#1E293B" font-family="Verdana, sans-serif" font-size="28" font-weight="700">Speed vs Velocity</text>
  <text x="72" y="124" fill="#475569" font-family="Verdana, sans-serif" font-size="18">Same speed can still mean different velocity if directions differ.</text>
  <line x1="94" y1="328" x2="626" y2="328" stroke="#94A3B8" stroke-width="6" stroke-linecap="round"/>
  <circle cx="220" cy="308" r="48" fill="#FDE68A" stroke="#D97706" stroke-width="4"/>
  <circle cx="500" cy="308" r="48" fill="#BFDBFE" stroke="#2563EB" stroke-width="4"/>
  <rect x="188" y="280" width="64" height="12" rx="6" fill="#78350F"/>
  <rect x="468" y="280" width="64" height="12" rx="6" fill="#1E3A8A"/>
  <path d="M136 226H268" stroke="#F97316" stroke-width="8" stroke-linecap="round"/>
  <path d="M150 212L122 226L150 240" fill="none" stroke="#F97316" stroke-width="8" stroke-linecap="round" stroke-linejoin="round"/>
  <path d="M584 226H452" stroke="#10B981" stroke-width="8" stroke-linecap="round"/>
  <path d="M570 212L598 226L570 240" fill="none" stroke="#10B981" stroke-width="8" stroke-linecap="round" stroke-linejoin="round"/>
  <text x="102" y="184" fill="#C2410C" font-family="Verdana, sans-serif" font-size="22" font-weight="700">20 km/h</text>
  <text x="92" y="260" fill="#C2410C" font-family="Verdana, sans-serif" font-size="18">toward west</text>
  <text x="532" y="184" fill="#047857" font-family="Verdana, sans-serif" font-size="22" font-weight="700">20 km/h</text>
  <text x="520" y="260" fill="#047857" font-family="Verdana, sans-serif" font-size="18">toward east</text>
  <rect x="236" y="362" width="248" height="52" rx="16" fill="#E2E8F0"/>
  <text x="258" y="394" fill="#0F172A" font-family="Verdana, sans-serif" font-size="20" font-weight="700">Speed = same</text>
  <text x="416" y="394" fill="#334155" font-family="Verdana, sans-serif" font-size="20">Velocity = different</text>
</svg>
