<svg width="720" height="480" viewBox="0 0 720 480" fill="none" xmlns="http://www.w3.org/2000/svg">
  <rect width="720" height="480" rx="32" fill="#F8F4EA"/>
  <rect x="34" y="34" width="652" height="412" rx="28" fill="#FFFDF8" stroke="#E9DFC8" stroke-width="4"/>
  <text x="72" y="92" fill="#1E293B" font-family="Verdana, sans-serif" font-size="28" font-weight="700">Distance vs Displacement</text>
  <text x="72" y="124" fill="#475569" font-family="Verdana, sans-serif" font-size="18">Round trip can have distance, but displacement can still be zero.</text>
  <circle cx="260" cy="266" r="112" fill="#E2F0D9" stroke="#7AA874" stroke-width="5"/>
  <circle cx="260" cy="266" r="78" fill="#F7FAF2" stroke="#B8D4A6" stroke-width="3" stroke-dasharray="8 8"/>
  <path d="M260 154C309 154 351 186 366 231" stroke="#F97316" stroke-width="8" stroke-linecap="round" stroke-dasharray="10 12"/>
  <path d="M366 231C382 277 368 331 328 364" stroke="#F97316" stroke-width="8" stroke-linecap="round" stroke-dasharray="10 12"/>
  <path d="M328 364C290 395 236 402 191 382" stroke="#F97316" stroke-width="8" stroke-linecap="round" stroke-dasharray="10 12"/>
  <path d="M191 382C146 362 117 319 116 270" stroke="#F97316" stroke-width="8" stroke-linecap="round" stroke-dasharray="10 12"/>
  <path d="M116 270C115 219 144 174 188 153" stroke="#F97316" stroke-width="8" stroke-linecap="round" stroke-dasharray="10 12"/>
  <path d="M188 153C211 143 235 140 260 154" stroke="#F97316" stroke-width="8" stroke-linecap="round" stroke-dasharray="10 12"/>
  <circle cx="260" cy="154" r="14" fill="#0F172A"/>
  <text x="282" y="160" fill="#0F172A" font-family="Verdana, sans-serif" font-size="18" font-weight="700">Start</text>
  <path d="M470 266H635" stroke="#2563EB" stroke-width="8" stroke-linecap="round"/>
  <path d="M620 252L648 266L620 280" fill="none" stroke="#2563EB" stroke-width="8" stroke-linecap="round" stroke-linejoin="round"/>
  <text x="468" y="236" fill="#1D4ED8" font-family="Verdana, sans-serif" font-size="22" font-weight="700">Displacement</text>
  <text x="470" y="300" fill="#475569" font-family="Verdana, sans-serif" font-size="18">Shortest change from</text>
  <text x="470" y="325" fill="#475569" font-family="Verdana, sans-serif" font-size="18">start to finish</text>
  <text x="72" y="406" fill="#C2410C" font-family="Verdana, sans-serif" font-size="20" font-weight="700">Dashed orange loop = distance covered</text>
  <text x="72" y="434" fill="#1D4ED8" font-family="Verdana, sans-serif" font-size="20" font-weight="700">Blue straight arrow = displacement</text>
</svg>
